<svg id="Layer_2" data-name="Layer 2" xmlns="http://www.w3.org/2000/svg" xmlns:xlink="http://www.w3.org/1999/xlink" viewBox="0 0 128 143.35"><defs><style>.cls-1{fill:url(#linear-gradient);}.cls-2{fill:url(#linear-gradient-2);}.cls-3{fill:url(#linear-gradient-3);}.cls-4{fill:url(#linear-gradient-4);}.cls-5{fill:url(#linear-gradient-5);}</style><linearGradient id="linear-gradient" x1="102.4" y1="153.25" x2="0.83" y2="24.27" gradientUnits="userSpaceOnUse"><stop offset="0" stop-color="#ff4f80"/><stop offset="0.25" stop-color="#ff667f"/><stop offset="0.99" stop-color="#ffa97b"/></linearGradient><linearGradient id="linear-gradient-2" x1="137.02" y1="125.99" x2="35.45" y2="-2.99" xlink:href="#linear-gradient"/><linearGradient id="linear-gradient-3" x1="84.74" y1="104.21" x2="54.87" y2="97.34" gradientUnits="userSpaceOnUse"><stop offset="0" stop-color="#4c0071"/><stop offset="0.42" stop-color="#80009a"/><stop offset="0.99" stop-color="#c300ce"/></linearGradient><linearGradient id="linear-gradient-4" x1="92.46" y1="105.99" x2="34.88" y2="92.75" xlink:href="#linear-gradient-3"/><linearGradient id="linear-gradient-5" x1="-29.78" y1="720.32" x2="-71.7" y2="710.68" gradientTransform="translate(-448.99 -365.25) rotate(-52.77)" gradientUnits="userSpaceOnUse"><stop offset="0" stop-color="#f3faed"/><stop offset="0.99" stop-color="#b7e3ff"/></linearGradient></defs><path class="cls-1" d="M127.91,133.76,117.18,59.19a8.39,8.39,0,0,0-8.31-7.2H19.13a8.39,8.39,0,0,0-8.31,7.2L.09,133.76a8.39,8.39,0,0,0,8.31,9.59H119.6A8.39,8.39,0,0,0,127.91,133.76Z" transform="translate(0 0)"/><path class="cls-2" d="M32,46.34a5.63,5.63,0,0,0,5.37-5.89c0-.14-.4-13.79,7.63-22.19,4.42-4.63,10.81-7,19-7s14.51,2.33,18.93,6.92c8.12,8.44,7.68,22.11,7.68,22.26A5.63,5.63,0,0,0,96,46.34h.27A5.64,5.64,0,0,0,101.88,41c0-.75.71-18.51-10.74-30.51C84.51,3.52,75.38,0,64,0S43.49,3.52,36.86,10.46C25.41,22.46,26.09,40.22,26.12,41A5.63,5.63,0,0,0,32,46.34Z" transform="translate(0 0)"/><circle class="cls-3" cx="63.67" cy="99.37" r="13.73"/><path class="cls-4" d="M63.67,128.9A29.54,29.54,0,1,1,93.21,99.37,29.57,29.57,0,0,1,63.67,128.9Zm0-50.3A20.77,20.77,0,1,0,84.44,99.37,20.8,20.8,0,0,0,63.67,78.6Z" transform="translate(0 0)"/><path class="cls-5" d="M96.63,100.74l-31.42-2.9A3.13,3.13,0,0,0,62,102.06l11.21,29.5a2.33,2.33,0,0,0,4.39-.08l2.19-6.42a2.42,2.42,0,0,1,3.75-1.15l11.33,8.61a3.46,3.46,0,0,0,4.85-.66l2.15-2.83L104,126.2a3.46,3.46,0,0,0-.66-4.85L92,112.75a2.41,2.41,0,0,1,.1-3.92l5.6-3.83A2.34,2.34,0,0,0,96.63,100.74Z" transform="translate(0 0)"/></svg>